<svg xmlns="http://www.w3.org/2000/svg" width="76" height="35" viewBox="0 0 76 35">
    <defs>
        <filter id="a" width="101.5%" height="127.8%" x="-.7%" y="-15%" filterUnits="objectBoundingBox">
            <feOffset dy="-1" in="SourceAlpha" result="shadowOffsetOuter1"/>
            <feGaussianBlur in="shadowOffsetOuter1" result="shadowBlurOuter1" stdDeviation="4"/>
            <feColorMatrix in="shadowBlurOuter1" result="shadowMatrixOuter1" values="0 0 0 0 0 0 0 0 0 0 0 0 0 0 0 0 0 0 0.3 0"/>
            <feMerge>
                <feMergeNode in="shadowMatrixOuter1"/>
                <feMergeNode in="SourceGraphic"/>
            </feMerge>
        </filter>
    </defs>
    <path fill="#FFF" fill-rule="evenodd" d="M29.97 11.498c.06-1.184-.03-2.297-1.463-2.676-1.346-.356-2.374.187-3.143 1.227-.79 1.069-.904 2.342-.843 3.608.082 1.69 1.518 2.553 3.134 1.892 1.82-.746 2.256-2.303 2.315-4.051m-3.81 7.732c-3.601.04-6.254-2.42-6.26-5.807-.007-4.751 3.51-8.199 8.402-8.234 3.6-.026 6.25 2.42 6.284 5.8.046 4.641-3.58 8.187-8.425 8.241m14.884-2.936c1.341-.082 2.209-.747 2.298-2.03.062-.907-.82-.664-1.343-.644-1.147.044-2.418.14-2.518 1.623-.066.967.864.978 1.563 1.051M42.607 5.96c4.955.001 6.613 2.01 5.714 6.546-1.116 5.636-5.475 8.181-10.82 6.311-1.336-.468-2.366-1.197-2.514-2.754-.16-1.68.38-2.989 1.918-3.813 1.764-.945 3.687-1.107 5.65-1.123.625-.006 1.523.12 1.576-.79.049-.823-.64-1.25-1.416-1.433-1.431-.336-2.78.023-4.127.464-.411.134-.916.586-1.286.14-.4-.485.012-1.028.297-1.44 1.288-1.865 3.236-2.175 5.008-2.108zM10.685 3.242c-1.207-.08-2.278.192-2.981 1.249C6.907 5.686 7.3 6.454 8.708 6.64c.574.075 1.584-.454 1.612.55.027 1-.536 2.205-1.648 2.187-2.636-.042-2.698 1.756-3.01 3.51-.256 1.43-.634 2.84-.86 4.273-.313 1.972-1.738 1.685-3.06 1.508C.334 18.48-.229 17.55.082 16.243.97 12.518 1.796 8.77 2.9 5.108 3.746 2.306 5.824.58 8.812.083c.793-.132 1.598-.128 2.379.166 1.02.383 1.472 1.082 1.33 2.156-.165 1.237-1.05.928-1.836.837zm46.208.13c-.242 1.65.81 1.86 2.095 1.876.543.007 1.32-.384 1.523.476.165.706-.295 1.258-.815 1.715-.63.555-1.442.679-2.218.88-2.228.579-3.989 4.26-2.986 6.248.43.852 1.17.723 1.917.595.541-.093 1.1-.138 1.466.374.42.588.111 1.15-.172 1.675-.837 1.549-2.876 2.192-5.174 1.556-1.737-.48-3.133-1.42-3.002-3.44.234-3.58.858-7.107 2.257-10.44.567-1.35 1.445-2.554 2.998-3.035 1.69-.524 2.151-.194 2.111 1.52zM15.225 18.968c-3.006-.012-4.696-2.024-4.039-4.928.905-3.996 1.99-7.955 2.792-11.97.38-1.903 1.505-1.894 2.924-1.692 1.574.224 1.972 1.296 1.696 2.61a241.001 241.001 0 0 1-2.138 9.27c-.401 1.59-.622 2.87 1.632 3.147 1.263.157.597 1.144.372 1.701-.567 1.402-1.77 1.895-3.239 1.862z" filter="url(#a)" transform="translate(8 9)"/>
</svg>
