<?xml version="1.0" encoding="utf-8"?>
<!-- Generator: Adobe Illustrator 19.2.1, SVG Export Plug-In . SVG Version: 6.00 Build 0)  -->
<svg version="1.1" id="Laag_1" xmlns="http://www.w3.org/2000/svg" xmlns:xlink="http://www.w3.org/1999/xlink" x="0px" y="0px"
	 viewBox="0 0 765.4 765.4" enable-background="new 0 0 765.4 765.4" xml:space="preserve">
<g>
	<path fill="#FFFFFF" d="M761.7,576.9c0.1-0.8,0.2-1,0.2-1.5c0-1.4,0-3.4,0.1-6.8C761.1,570.8,761.2,560.9,761.7,576.9z"/>
	<path fill="#FFFFFF" d="M762,575.4C762.1,582.4,762.8,570.8,762,575.4L762,575.4z"/>
	<path fill="#FFFFFF" d="M763.4,545.1c-0.5-9.5-1-7.5-2-2.1l0.9,9.2C762.9,550.3,763,542.1,763.4,545.1z"/>
	<path fill="#FFFFFF" d="M760.6,489.2l0.6,6.8c0.4-3.5,0.7-10.2,1.5-10.6C762.2,484.8,761.3,488.5,760.6,489.2z"/>
	<path fill="#FFFFFF" d="M760.6,489.2l-0.9-10.2C759.6,488.1,760.1,489.8,760.6,489.2z"/>
	<polygon fill="#FFFFFF" points="762.8,446.4 764,452.2 762.2,441.8 	"/>
	<path fill="#FFFFFF" d="M762.6,420.5c1,4.3,1.7-5.9,2.3-1.3c-0.2-7-1-13-1.8-18.4C763.5,406.5,763.4,412.6,762.6,420.5z"/>
	<path fill="#FFFFFF" d="M763.1,400.7c-0.2-3.1-0.6-6.1-1.1-9.1C762.2,394.5,762.6,397.5,763.1,400.7z"/>
	<path fill="#FFFFFF" d="M689.1,752c-2.1,0.1-5.6,0.1-8.8,0.1C681.8,752.2,684.5,752.2,689.1,752z"/>
	<path fill="#FFFFFF" d="M761,221.8C761.1,226.6,761.1,222.6,761,221.8L761,221.8z"/>
	<path fill="#FFFFFF" d="M760.3,229c0.2-1.8,0.3-3.9,0.4-6.1C760.6,223.9,760.5,225.7,760.3,229z"/>
	<path fill="#FFFFFF" d="M761,228.1c-0.1,1.7-0.1,3-0.1,4.2C761.1,232.9,761.3,232.3,761,228.1z"/>
	<path fill="#FFFFFF" d="M761,221.8c0-1.4,0-3.4-0.1-6.7c0,2.7,0,5.3-0.2,7.8C760.8,221.9,760.9,221.5,761,221.8z"/>
	<path fill="#FFFFFF" d="M321.2,752.6c0.2,0.1,0.5,0.2,0.9,0.2C321.8,752.8,321.5,752.7,321.2,752.6z"/>
	<path fill="#FFFFFF" d="M761.7,270.4l-0.4-9.3c0.1,5-0.3,6.8-0.5,9.4C761.1,270.3,761.5,268.8,761.7,270.4z"/>
	<path fill="#FFFFFF" d="M761.7,270.4l0,1.1C761.7,271,761.7,270.7,761.7,270.4z"/>
	<polygon fill="#FFFFFF" points="724.7,753.9 734.5,754.6 728.2,753.4 	"/>
	<path fill="#FFFFFF" d="M743.4,751.3l2.3,2.2l5.8-2C749.4,751.6,745.1,751.8,743.4,751.3z"/>
	<path fill="#FFFFFF" d="M748.1,758c0.2-0.6-3.8,1.9,3.4,2.4C750.9,760,752.5,757.8,748.1,758z"/>
	<path fill="#FFFFFF" d="M573.9,761.1c3.4-0.1,5.4-0.1,6.8-0.1c0.5-0.1,0.7-0.2,1.5-0.4C566.2,759.9,576.1,759.7,573.9,761.1z"/>
	<path fill="#FFFFFF" d="M580.7,761C576.1,762.2,587.8,761.1,580.7,761L580.7,761z"/>
	<path fill="#FFFFFF" d="M557.5,761.5l-9.3-1.3c-5.4,1.4-7.4,2.2,2.2,2.9C547.2,762.5,555.5,762.3,557.5,761.5z"/>
	<path fill="#FFFFFF" d="M539.4,757.5c2.7,1,4,0.9,4.8,0.5L539.4,757.5z"/>
	<path fill="#FFFFFF" d="M548.9,758.5c-3.2-2.2-3.3-1-4.7-0.4l10.2,1.1C550,758.4,548,757.4,548.9,758.5z"/>
	<path fill="#FFFFFF" d="M562.8,756.1c9.3,1.3,2.6,1.8-2.6,2.6C577.9,759.2,580.5,756.6,562.8,756.1z"/>
	<path fill="#FFFFFF" d="M490.3,762.1c0.5-1.2,7.1-1.7,10.7-2.2l-6.9-0.9C493.4,760,489.7,761.3,490.3,762.1z"/>
	<path fill="#FFFFFF" d="M483.9,757.7l10.3,1.3C494.7,758.2,493,757.5,483.9,757.7z"/>
	<polygon fill="#FFFFFF" points="537.7,753.4 534.5,753.4 554.6,756.3 	"/>
	<polygon fill="#FFFFFF" points="446.6,761.3 456.9,764 451.1,762.2 	"/>
	<path fill="#FFFFFF" d="M425.1,761.9c-8,1.2-14.1,1.4-19.9,0.7c5.4,1.2,11.5,2.5,18.5,2.7C419.2,764.4,429.4,763.4,425.1,761.9z"/>
	<path fill="#FFFFFF" d="M405.2,762.6c-3.2-0.7-6.2-1.3-9.1-1.7C399.2,761.8,402.2,762.3,405.2,762.6z"/>
	<path fill="#FFFFFF" d="M458.3,760.3c5.8-0.5,7.3-1.8,8.1-2.2c-1.4,0-2.8,0-4,0L458.3,760.3z"/>
	<path fill="#FFFFFF" d="M453.6,758.2c1.3,0,4.3-0.1,8.7-0.1l0.1-0.1C457.4,758.1,454.7,758.2,453.6,758.2z"/>
	<path fill="#FFFFFF" d="M466.4,758.1c0.4,0,0.6,0,1,0C467,757.8,466.8,757.8,466.4,758.1z"/>
	<path fill="#FFFFFF" d="M483.3,754.8l-10.9,0.5l11.7,1.5C481.1,756.2,483.1,755.4,483.3,754.8z"/>
	<polygon fill="#FFFFFF" points="468.4,755.5 472.4,755.3 467.1,754.6 	"/>
	<path fill="#FFFFFF" d="M417.9,757c-6.1,0-12.6,0.2-18.8,0.7c5.8,0.2,11,0.2,15.7,1.2C421.5,759,418.8,757.7,417.9,757z"/>
	<path fill="#FFFFFF" d="M436.9,758.1c0.3,0.1,0.7,0.1,1,0.1C438.1,757.9,437.6,758,436.9,758.1z"/>
	<path fill="#FFFFFF" d="M343,757.7c-0.1-0.1-0.1-0.3-0.2-0.4c-0.3,0.1-0.6,0.3-0.9,0.4L343,757.7z"/>
	<path fill="#FFFFFF" d="M419,756.6c-1.5-0.1-1.4,0.1-1,0.4c4,0,7.7,0.2,11.2,0.4C426.5,756.7,423.7,756.2,419,756.6z"/>
	<path fill="#FFFFFF" d="M388.3,758.7c-2.9,0.4-5.7,0.8-8.1,1.2C381,760.5,385.9,759.4,388.3,758.7z"/>
	<path fill="#FFFFFF" d="M436.1,758.9c-0.3,0-0.5-0.1-0.7-0.1C434.7,759.1,434.5,759.3,436.1,758.9z"/>
	<path fill="#FFFFFF" d="M436.9,758.1c-2.3-0.3-4.9-0.6-7.8-0.7c1.9,0.5,3.8,1,6.2,1.3C435.8,758.5,436.3,758.3,436.9,758.1z"/>
	<path fill="#FFFFFF" d="M352.4,760.1c6.7-1.6,10.3-2.4,15.3-2.8l-4.4-0.3l1.5,0.3l-21.8,0.3C343.5,758.4,345,759.1,352.4,760.1z"/>
	<path fill="#FFFFFF" d="M388.8,758.5c0-0.1-0.2-0.2-0.3-0.3c-1.9-0.3-7-0.4-0.9-0.8c0.4,0.3,0.8,0.5,0.9,0.8c0.1,0,0.4,0,0.4,0
		C390,758.1,389.7,758.3,388.8,758.5C388.8,758.6,388.8,758.6,388.8,758.5L388.8,758.5c-0.2,0.1-0.4,0.1-0.6,0.2
		c3.4-0.4,7.1-0.7,10.9-1c-3.5-0.1-7.2-0.2-11.3-0.6c15.2-1.3-11.9-3,9.1-2.5c-7.8-1-3.9-2.7-16.9-2.8c-6.5,2.4,4.1,3.3,7.6,5.6
		c-9.9-0.3-15.5-0.3-19.9,0L388.8,758.5C388.8,758.6,388.8,758.6,388.8,758.5z"/>
	<path fill="#FFFFFF" d="M474.2,752.9c0.2-0.2,0.4-0.3,0.6-0.5C474.2,752.7,473.9,752.9,474.2,752.9z"/>
	<polygon fill="#FFFFFF" points="332,757.8 342.2,761.2 339.8,758.8 	"/>
	<polygon fill="#FFFFFF" points="311.9,759.3 317.9,760.6 317.1,758.5 	"/>
	<path fill="#FFFFFF" d="M4,475l-2.2-2.3c-2.3-0.9,0.7,7.4,2.6,14.9C3.8,484.2,3.6,480.2,4,475z"/>
	<path fill="#FFFFFF" d="M67.9,759.1c4.5-0.1,9.7-0.5,16.1-1.3C82,755.8,75.7,757.8,67.9,759.1z"/>
	<path fill="#FFFFFF" d="M252.5,3c-0.7,0.5,1.2,1,4.4,1.4C257,3.8,255.7,3.4,252.5,3z"/>
	<path fill="#FFFFFF" d="M67.9,759.1c-5.8,0.1-10.5-0.2-15.3-0.5c-1.2,0.2-2.3,0.3-3.4,0.5C55.5,760.6,62.1,760,67.9,759.1z"/>
	<path fill="#FFFFFF" d="M761.6,674.5c0,3.2,0,6.7-0.2,8.8C761.7,678.7,761.7,676,761.6,674.5z"/>
	<path fill="#FFFFFF" d="M225.5,759.5C226.3,759.8,230.4,759.7,225.5,759.5L225.5,759.5z"/>
	<path fill="#FFFFFF" d="M232.8,758.5c-3.3,0.3-5.2,0.5-6.2,0.7C228.9,759,231,758.8,232.8,758.5z"/>
	<path fill="#FFFFFF" d="M236,759.3c-1.2,0.1-2.6,0.1-4.2,0.2C236.1,759.9,236.6,759.7,236,759.3z"/>
	<path fill="#FFFFFF" d="M218.8,759.4c3.3,0.1,5.3,0.1,6.7,0.1c-0.3-0.1,0.1-0.2,1.1-0.4C224.1,759.3,221.6,759.4,218.8,759.4z"/>
	<path fill="#FFFFFF" d="M762.4,317c0.1,0.3,0.2,0.6,0.4,0.9C762.6,317.5,762.5,317.2,762.4,317z"/>
	<path fill="#FFFFFF" d="M761.5,700.7l-3.4-27c1.2,0.9,3.1-3.6,3.5,0.8c0.1-6.7,0.2-12.5,2-3.8c-4.3-33.5-4.2-67.5-3.8-101.3
		c0.4-1,0.7-6,0.6-14.5c-0.1,1.4-0.3,2.9-0.4,4.2c0.1-4.6,0.1-9.3,0.2-13.9c0.2,0.9,0.4,2.3,0.6,3.9l-0.6-7.3
		c0.2-21.4,0.2-42.7-1.2-63.6c0.1,0.2,0.1,0.6,0.2,1l-0.3-3c0.3-3.8,1.4-1.5,2.2,0.1c-3.2-11.7,1.6-11.2,2.1-17.6l-4.6-17.1
		c1.4-6.9,2.7-1.5,3.7-2c0.6-20-0.9-39.7-1.5-58c0.4-2.4,0.7-5.3,0.4-5.9c-0.2,1.4-0.3,2.8-0.5,4.4c-0.3-10.8-0.3-21.1,0.7-30.6
		c-0.1-0.3-0.1-0.6-0.2-0.8c0-0.2,0.1-0.4,0.1-0.6c-0.5-6-1-8.1-1.4-8.9c0.1-1.5,0.3-3.2,0.4-5.1l0.1,1.5l1.6,2.3l-1.5-7
		c0.3-7.9,0.6-16.2,1.9-13.8c-0.4-1-0.7-2.2-1-3.5l0.3,0.2l-0.8-6l-0.2,1.9c-0.4-3.1-0.7-6.5-0.9-9.8c0.7-3.1-0.5-2.3,1.5-10.3
		c-2.9,7.9-0.1-30.9-2.7-22.3c2.3-9.1,1-16.2,3.3-28.3c-0.7,0.4-1.3,4.5-1-6.7c-0.2-0.5-0.5-1.7-0.6-2.5c0-0.3,0-0.5,0.1-0.8
		c0,0.2-0.1,0.4-0.1,0.6c-0.1-0.5-0.1-0.5,0,0.2c-0.1,0.8-0.2,1.6-0.3,2.4c-0.3-5.6-0.1-15.7-0.1-27.1c0,0.3,0,0.6,0,0.9
		c-0.4,3.5,1.8,2.2,1.2,4.1c1.4,3-0.7-12.6-1.2-10.8c0-3.9,0-7.8,0-11.7c0.3,0.5,0.5,2.3,0.8,6.6l0.1-14.1
		c0.9-8.3,1.2-19.8,0.6-26.9c0.1-2.6-0.1-5.8-0.4-8.4l2.1,5.8l-0.3-20.2c0.3-4.1,0.2-5.3-0.1-5.2c-0.1-3.3-1.6,0.6-2.4-7.1
		c0-2,0-4,0-6c0.3-8.8,1.7-10.3,3-16.7l0.4,2.1l0.3-9.3c-0.1-6.6-2.7,21.6-4.3,4.5c0-0.9-0.1-1.8-0.1-2.7c1-1.3,4.6-13.6,2.5-19.4
		c0.1,8.4-1,9.8-1.9,8.3c0.5-5.5,0.7-10.1,0.7-14.1c-0.6,5-1.3,9.4-1.4,12.4c-0.1-0.3-0.1-0.5-0.2-0.8c0-5,0.1-10.1,0.3-15.3
		l1.3,1.8c0,0.6,0,1.2,0,1.9c0.1-0.5,0.1-1.1,0.2-1.7l1.8,2.5c0-8.4-0.2-16.9-0.3-25.4c-0.2-11.9-0.4-23.8-0.6-35.9
		c-4.7,0.1-9.5,0.2-14.2,0.3c-2.3,0-4.7-0.1-6.9-0.1c-1.7,0-3.3-0.1-4.9-0.1c-5.1-0.1-9.4-0.1-11.1,0.5c-10.3-3.6-46.1-0.8-62.8-1.4
		L661,5.2c-11.5-0.1-22.5,0.4-36.8,1.1l0.9,1.5c-0.9,0.1-1.9,0.2-3,0.2l-16.9-2c-10.7-9.3-51.5,0.8-80.8-2.2
		c2.1,0.4,2.6,0.9,2.9,1.1c-13.1-1.5-27.7-0.9-39.9,0c-5.7-1.1-10.5-2-9.8-0.8l2.1,1.3c-0.6,0-1.2,0.1-1.9,0.1
		c-2.1-0.2-3.2-0.1-3.4,0.2c-5.6,0.4-9.7,0.6-11.5,0.1l-1.5,1.7c-1.5,0-3,0.1-4.6,0.2c-18.8-3.3-22.7-3.5-47.6-2
		c0.3,0.4,3.4,1.1-0.8,1.7c-6.4-1.9-12.8-3.8-31-3.3l0.7,0.8l-28.4-0.4c0.2,7.9-48.7-4.8-57.2,3.7c-5.6-2.3-26.3-3-35.6-4.1
		c-0.1,0.3-0.6,0.7-2.2,1.1c-10.9-4.2-31.5,1.3-43.6,0.8c-7.9-1-4.5-2.4-1-3.7c-15.6,3.4-43-3.7-48.7-2.3c-11.4,0.3-4.3,3-7.4,4.8
		c-17-0.8,2.9-7.1-19.9-4c2.6,0.3,7.5,0.6,5.6,1.1c-6.6,0.5-17.2,5.9-25.7,7.6c-2.3,0-4.4,0.1-6.5,0.4c-0.2,0-0.5-0.1-0.7-0.1
		l5.7-1.4c-4.6-0.6-9.7-0.3-14.7,0.3c-7-0.2-17.2-0.4-24.7-0.2l0.9-1.5C60.3,8.8,57.4,8.6,54.4,8.3C53,8.1,51.5,8,48.6,8
		c-1.4,0-3.2,0.1-5.5,0.3c-1.1,0.1-2.4,0.2-3.8,0.3c-0.7,0.1-1.5,0.1-2.3,0.2c-1,0.1-2,0.2-3.1,0.2l0.5,0.4c-4.9-0.2-9,0.1-12.5,0.3
		c-0.3,0-0.6,0-0.9,0.1c-1.5,0-3.2,0-4.9,0l2.3,0.1c-2,0.1-3.7,0.2-5.5,0.1c-0.1,2.9-0.6,5-2,6.9l-0.5-5.9c-0.2,9.9-0.2,15.5-0.1,21
		c0.1,4.2,0.1,8.5,0.3,16.4c-0.4,1.8-1,9.1-0.1,11.2C7.1,60.4,8.8,95,9,101.8c0.5-12,1.9-6.3,3.3-2.9c-2.7,7.1-3,12-1,21.8
		c-4.1,1.4-8.5,3.4-8.8,22.7c0.6-3,1-7.7,1.8-5.8c0.9,2-0.1,6.5-0.4,8c0.8,1.9,1.5-4.3,2.9-2.1c-3.9,13.1-0.3,22.6-1.7,41.6
		c1.2-6,2-0.8,3.5,1.3c-4.7,1.5,4.1,25.9-2,18.7c3.6,37.2,0.3,94.3,4.2,108.8c1.7,3.9-1.1,14.2-1.1,20.7l2.1-0.9
		c-3.7,18.1-1.4,14.1-5.1,35.4c1.9-6.9,3-6.1,4.3-1.3l0.1,5.9l-0.5-0.7c0,2.1-0.1,4-0.1,5.8l-2.5,8.7l2.9,2.6c0,0.5,0.1,1,0.1,1.4
		c-1,5.6-0.5,11.8-0.1,18c-3.4,5.9-3.1,28.5-5.1,32.3c4.3,6.5-1.1,17.5,2.9,22.3C8,466.2,7.5,469,7.1,472c-1.9-3.1-4-4.3-3.1,1.6
		c0,0.5,0,0.9-0.1,1.4l2.5,2.6c-0.6,6-0.9,12.1-0.9,16.2c-0.2-1.8-0.7-3.9-1.2-6.1c0.4,2.6,0.8,5,1.2,7.3c0,0.8,0,1.6,0,2.1
		c0.1-0.4,0.1-0.8,0.1-1.3c0.6,3.7,0.9,7.5,0,12.7c3.8,21-5.2,46.7,0,69.9c-0.5-3.5-0.8-8.4,0.1-9.7c-0.2,19.4,3.3,38.6,1.4,50.9
		L5,618.6c-1.1,14.2-1.8,25.2-1.7,36.7l-2.6,0.6c1,16.6-3.3,52.4,2.1,62.6c-0.4,0.8-0.7,2.3-0.8,4.2c0,0.5,0,1,0,1.5
		c0,0.6,0,1.2,0,1.9c0,2,0,4.2,0.1,6.4c0.2,8.9,0.6,18.9,0.7,27.2c3.6,0,6.8,0,9.5,0.1c0,0,1.4-0.5,2.7-1c1.3-0.5,2.6-1,2.6-1
		c5.1-0.2,9.7-0.2,13.8-0.3c2,0,4,0,5.9,0c1.2,0,2.3,0.1,3.4,0.1c4.4,0.2,8.2,0.5,11.9,0.8c25.1-4.2,48.4-0.1,70.4-0.3l0.2-0.6
		l22.3,1.4c-5.8-1.8,4.4,1.3,11.1,0.8c7.1,1,18.6,0.5,27-0.8l14.2-0.1c-15.8-1.4,1.1-2.9,2-5.2l9.1,1.9c3.7-1.1-5.8-1.8,0.9-2.3
		c6.1,1.2,24,1.2,29.6,3.6c-0.9,0.6-3.1,1.1-5.8,1.6c-0.8-0.1-0.7-0.1-0.2,0c-0.2,0-0.4,0.1-0.6,0.1c0.3,0,0.4,0,0.8-0.1
		c0.8,0.2,2,0.6,2.5,0.9c11.3-0.5,7.1,0.4,6.8,1.5c12.2-3.4,19.3-1.4,28.5-4.9c-8.6,3.9,30.4-0.3,22.4,4.1c9.6-3.7,6.5-0.2,12.7-3.3
		c-13.5,1-26.8-2.4-37.7-3.9l10.6-2.2c-0.4-0.2-0.8-0.4-1.3-0.6c0.6,0,1.3,0,1.9,0c-3.8-0.4-6.1-2.6,7.1-2.4
		c-4.7,4.5,22.8,2.1,34.1,5.1c-1.6-0.6,1.9-0.9,6.9-1c-0.1,0-0.1,0.1-0.2,0.1c0.3,0,0.6-0.1,0.8-0.1c8.1-0.3,19.3-0.4,19-1.4
		c5.7,1.7-12.5,3.1-16,4.2c10.8,1.2,10.8,2,11.1,2.9c3.8-1.6,7.2-3.6,9.1-5.6c0.5,0.1,1.1,0.2,2,0.3c26.3-1.8,58,1.2,90.6,0.6
		c0.5-0.6-4.9-1.5,2-2.4l17.2,3c5.4-0.3,5.9-2.6,13-2c-0.6,0.4-1.2,0.8-1.8,1.3c0.8-0.3,2.1-0.7,3.8-1.1c0.8,0.1,1.7,0.2,2.6,0.4
		c-0.6-0.2-1.3-0.4-1.8-0.6c1.1-0.3,2.4-0.5,3.7-0.8c6.9,0.3,13.9,0.5,20.8,0.6c-11.6,1.9,0.8,3.2,6.8,4.4c-8.9-1.8-2.3-2.9-6.3-4.4
		c47.1,0.9,95.4-1.4,143.1,0.6l-1.8,0.8c-11.9,1.3-29.9-3-36.2,0.7c10.2-1,29,0.9,43.5,1.4l-5.3-2.9c8.8,0.4,17.7,0.9,26.4,1.6
		l3.5,0.7l-1.3-0.9l-4.5-0.6c0.4-0.3,4.1-0.4,8.2-0.4c-4.4-0.3,0.1-1.5-0.8-2.3l27.1,2.3c4.9-2.3,29.1-0.2,31.9-2.3l-8.6,0.4
		c6.3-1.4,0.8-3-5.1-4.7h26.7v-26.6c2.5,5.9,4.9,11.3,7.1,5.1l-0.6,8.5C761.3,729.6,758.1,705.6,761.5,700.7z M635.5,11.2
		c0.4,0.2,0.2,0.5-0.6,0.8C635.1,11.8,635.3,11.5,635.5,11.2z M14.3,104.7c0.2,2.8-0.2,6.1-0.9,9.6L14.3,104.7z M15.8,628.9
		c-0.3,1.5-0.7,1.8-0.9,0.1C15.2,629,15.5,628.9,15.8,628.9z M94.8,750.6c4.6,0.2,6.4,0.5,6.6,0.8C99.2,751.2,96.9,750.9,94.8,750.6
		z M760.3,543.7C760.2,543.6,760.2,543.6,760.3,543.7c-0.1-0.1-0.1-0.1-0.1-0.2C760.2,543.6,760.3,543.6,760.3,543.7z M759.7,345.9
		c-0.8-0.1-1.6,1-2.1-1.8c0.2-0.4,0.4-0.9,0.5-1.4c0.8,1.4,1.3,0.6,1.6-1.4L759.7,345.9z M756.3,282.6c0-0.5-0.1-0.9-0.1-1.4
		c-0.3,0.2-0.6,0.7-0.7,1.5c-0.2,0.1-0.5,0.2-0.7,0.4c-0.3-9.9,1.5-11.1,2.7-9.5c0.5,4.6,1.1,9.4,1.4,14.4
		C758.4,284.8,757.7,282.7,756.3,282.6z M756.7,152.2c0.5,1.3,0.8,2.2,1.1,2.8c0,0.6,0,1.1,0,1.7
		C757.5,154.9,757.2,153.4,756.7,152.2z M759.6,169.1c0-0.1,0-0.3-0.1-0.4C760.2,160.9,759.9,163.7,759.6,169.1z M760.9,123.9
		l0.7,3.2C760.9,129,760.2,131,760.9,123.9z M11.4,408.2c0,0.2,0,0.4,0,0.6c-0.2,0.2-0.4,0.5-0.5,0.7
		C10.8,407.2,11,407.7,11.4,408.2z M10.3,542.4c0,1.3-0.1,2.7-0.1,4l-0.3-0.7C10,544.6,10.2,543.5,10.3,542.4z M13.2,629.5
		c-0.3,5.2-0.3,12.6-0.5,17.9c-1.3-7.4-2.3-14.5-2.4-15.5C10.9,630.8,11.9,630,13.2,629.5z M105.8,751.9c-0.1,0-0.2,0-0.2,0
		c2.6-0.4,5.5-0.8,11-0.8C116.3,751.8,114.3,752.4,105.8,751.9z M172.2,757.4c0.1,0.1,0.2,0.1,0.4,0.1
		C167.2,757.9,164.4,758.3,172.2,757.4z M171.9,754.2c-13.4,1.5-19.1,0.3-25.3-1.3l7.4,0.1l-8.1-2c9-1,19,0.1,9.7-2.1
		c3.9,1,11.8,1.5,21.2,1.8C177.3,751.8,176.6,753,171.9,754.2z M227.1,750.9c6.1,0,10.6,0.1,12.5,0.3c2.9-0.3,5.7-0.6,8.6-0.8
		c0.2,0.1,0.5,0.2,0.8,0.2c-0.3-0.1-0.5-0.2-0.8-0.2c4.3-0.3,8.7-0.4,13.3-0.5c-5,0.7-9.7,1.4-12.5,0.8c4,0.9,12.9,0.1,14.1-0.8
		l-2.7,3C247.4,754,236.7,752.3,227.1,750.9z"/>
	<path fill="#FFFFFF" d="M274.4,759.2c-2.6,0.4-4.4,0.9-9.4,0.8l9.3,0.6C272.8,760.3,274.2,759.7,274.4,759.2z"/>
	<path fill="#FFFFFF" d="M274.4,760.6c0.3,0,0.6,0.1,1.1,0.1L274.4,760.6z"/>
	<path fill="#FFFFFF" d="M299.9,751.4c-7.3-0.4-13.9-1.1-14.7,1c7.8,1,15.6,1.9,13.4-1C299,751.3,299.4,751.4,299.9,751.4z"/>
	<path fill="#FFFFFF" d="M301.6,751.4c4,0.3,7.6,1.2,6.8,0.1C306.1,751.6,303.8,751.5,301.6,751.4z"/>
	<path fill="#FFFFFF" d="M213.8,759.6c-2,0.9-0.7-2.4-4.1-1.8C190.6,756.4,217.7,762.3,213.8,759.6z"/>
	<polygon fill="#FFFFFF" points="763.6,722.2 765.4,728.4 764.3,718.7 	"/>
	<path fill="#FFFFFF" d="M760.3,737.4c0.4,0.8,0.5,2.4,0.5,3.9c-0.5-0.7-1.1,0.9-0.9,0.8c-0.1,2.3,0.3,2.9,0.7,3.1
		c0,0.1,0,0.2,0,0.3l0.1-0.3c0.3,0.1,0.7,0,0.8,0.3c0-0.6-0.1-1.1-0.1-1.5l2.2-4.3L760.3,737.4z"/>
</g>
</svg>
