<?xml version="1.0" encoding="utf-8"?>
<!-- Generator: Adobe Illustrator 19.2.1, SVG Export Plug-In . SVG Version: 6.00 Build 0)  -->
<svg version="1.1" id="Laag_1" xmlns="http://www.w3.org/2000/svg" xmlns:xlink="http://www.w3.org/1999/xlink" x="0px" y="0px"
	 viewBox="0 0 765.4 765.4" enable-background="new 0 0 765.4 765.4" xml:space="preserve">
<g>
	<g>
		<polygon fill="#FFFFFF" points="17.6,17.8 0,0 0,765.4 17.6,747.6 		"/>
		<polygon fill="#FFFFFF" points="747.8,17.8 765.4,0 0,0 17.6,17.8 		"/>
		<polygon fill="#B8B8BA" points="17.6,747.6 0,765.4 765.4,765.4 747.8,747.6 		"/>
		<polygon fill="#DCDDDE" points="747.8,17.8 747.8,747.6 765.4,765.4 765.4,0 		"/>
		<polygon fill="#DCDDDE" points="95,95.9 17.6,17.8 17.6,747.6 95,669.5 		"/>
		<polygon fill="#ECECEE" points="95,669.5 17.6,747.6 747.8,747.6 670.4,669.5 		"/>
		<polygon fill="#ECECEE" points="95,95.9 670.4,95.9 747.8,17.8 17.6,17.8 		"/>
		<polygon fill="#FFFFFF" points="670.4,669.5 747.8,747.6 747.8,17.8 670.4,95.9 		"/>
	</g>
</g>
</svg>
