<?xml version="1.0" encoding="utf-8"?>
<!-- Generator: Adobe Illustrator 19.2.1, SVG Export Plug-In . SVG Version: 6.00 Build 0)  -->
<svg version="1.1" id="Laag_1" xmlns="http://www.w3.org/2000/svg" xmlns:xlink="http://www.w3.org/1999/xlink" x="0px" y="0px"
	 viewBox="0 0 765.4 765.4" enable-background="new 0 0 765.4 765.4" xml:space="preserve">
<path fill="#FFFFFF" d="M739.4,427.1c0.1-4.9,26-1.7,26-44.5c0-42.8-25.9-39.6-26-44.5c-0.9-12.1-2.3-26.2-4.4-40
	c-5.3-35.5,11.4-88.5,16.6-132.3c5.2-43.8-21-46.7-21-46.7c28.3-18.4,3.7-76.6,0.2-81l0,0c-1.7-2.8-57-31.7-74.2,0
	c0,0-2.6-28.6-42.7-23c-40,5.7-74.2,24-106.7,18.2c-12.6-2.3-71.4-3.8-82.5-4.8C420.4,28.3,423.3,0,384.3,0
	c-39,0-36.2,28.3-40.6,28.4c-11.1,1-69.9,2.5-82.5,4.8c-32.4,5.8-69.7-12.5-109.7-18.2c-40-5.7-42.7,23-42.7,23
	c-17.2-31.7-72.5-2.8-74.2,0l0.1,0.1c-2.7,2.2-28.8,62.5,0,81.2c0,0-26.2,2.9-21,46.7c5.2,43.8,21.9,96.8,16.6,132.3
	c-2.1,13.8-3.5,27.8-4.4,40c-0.1,4.9-26,1.7-26,44.5c0,42.8,25.9,39.6,26,44.5c0.9,12.1,2.3,26.2,4.4,40
	c5.3,35.5-11.4,88.5-16.6,132.3c-5.2,43.9,21,46.7,21,46.7c-28.1,18.3-4,76-0.3,80.9l0,0c1.7,2.8,57,31.7,74.2,0
	c0,0,2.6,28.6,42.7,23c40-5.7,77.3-24,109.7-18.2c12.6,2.3,71.4,3.8,82.5,4.8c4.5,0.1,1.6,28.4,40.6,28.4c39,0,36.2-28.3,40.6-28.4
	c11.1-1,69.9-2.5,82.4-4.8c32.4-5.8,66.6,12.5,106.7,18.2c40,5.7,42.7-23,42.7-23c17.1,31.7,72.3,2.9,74.2,0c2.5-1.9,29-62.4,0-81.2
	c0,0,26.2-2.9,21-46.7c-5.2-43.8-21.9-96.8-16.6-132.3C737.1,453.3,738.5,439.2,739.4,427.1z M727.1,41.9l-73,84.7
	c-1.2-1.8-2.6-3.4-4.3-4.6L727.1,41.9z M115.8,122c-1.8,1.3-3.3,3-4.5,4.9L35.1,38.5L115.8,122z M39.4,722.2l71.9-83.4
	c1.1,1.8,2.5,3.4,4.2,4.7L39.4,722.2z M649.8,643.7c1.8-1.3,3.3-3,4.5-4.9l76.2,88.4L649.8,643.7z"/>
</svg>
