<?xml version="1.0" encoding="utf-8"?>
<!-- Generator: Adobe Illustrator 19.2.1, SVG Export Plug-In . SVG Version: 6.00 Build 0)  -->
<svg version="1.1" id="Laag_1" xmlns="http://www.w3.org/2000/svg" xmlns:xlink="http://www.w3.org/1999/xlink" x="0px" y="0px"
	 viewBox="0 0 595.3 841.9" enable-background="new 0 0 595.3 841.9" xml:space="preserve">
<g>
	<polygon opacity="0.1" fill="#FFFFFF" points="542.5,446.7 559.8,382 525.8,396 	"/>
	<polygon opacity="0.2" fill="#FFFFFF" points="542.5,446.7 595.3,433.9 595.3,394.1 559.8,382 	"/>
	<polygon opacity="0.8" fill="#FFFFFF" points="471.7,788 528.8,841.9 563.2,841.9 537.8,772 	"/>
	<polygon opacity="0.7" fill="#FFFFFF" points="474.1,841.9 528.8,841.9 471.7,788 	"/>
	<polygon opacity="0.7" fill="#FFFFFF" points="537.8,772 581.9,666.7 471.7,788 	"/>
	<polygon opacity="0.2" fill="#FFFFFF" points="595.3,489.8 595.3,433.9 542.5,446.7 	"/>
	<polygon opacity="0.8" fill="#FFFFFF" points="537.8,772 595.3,775 595.3,691.4 581.9,666.7 	"/>
	<polygon opacity="0.9" fill="#FFFFFF" points="563.2,841.9 595.3,841.9 595.3,775 537.8,772 	"/>
	<polygon opacity="0.1" fill="#FFFFFF" points="266.8,602.7 254.1,674 294.1,618 	"/>
	<polygon opacity="0.6" fill="#FFFFFF" points="581.9,666.7 595.3,660.1 595.3,619.7 551.2,604 	"/>
	<polygon opacity="0.7" fill="#FFFFFF" points="595.3,691.4 595.3,660.1 581.9,666.7 	"/>
	<polygon opacity="0.3" fill="#FFFFFF" points="531.8,490.7 595.3,494.3 595.3,489.8 542.5,446.7 	"/>
	<polygon opacity="0.5" fill="#FFFFFF" points="392.9,794.7 471.7,788 385.6,637.4 	"/>
	<polygon opacity="0.6" fill="#FFFFFF" points="392.9,794.7 416.6,841.9 474.1,841.9 471.7,788 	"/>
	<polygon opacity="0.1" fill="#FFFFFF" points="261.4,832 262.5,841.9 313.7,841.9 325.5,808 	"/>
	<polygon opacity="0.4" fill="#FFFFFF" points="325.5,808 337.5,841.9 391.8,841.9 392.9,794.7 	"/>
	<polygon opacity="0.5" fill="#FFFFFF" points="391.8,841.9 416.6,841.9 392.9,794.7 	"/>
	<polygon opacity="0.3" fill="#FFFFFF" points="313.7,841.9 337.5,841.9 325.5,808 	"/>
	<polygon opacity="0.3" fill="#FFFFFF" points="335.5,712.7 385.6,637.4 294.1,618 	"/>
	<polygon opacity="0.2" fill="#FFFFFF" points="254.1,674 335.5,712.7 294.1,618 	"/>
	<polygon opacity="0.4" fill="#FFFFFF" points="335.5,712.7 392.9,794.7 385.6,637.4 	"/>
	<polygon opacity="0.1" fill="#FFFFFF" points="254.1,674 261.4,832 335.5,712.7 	"/>
	<polygon opacity="0.3" fill="#FFFFFF" points="325.5,808 392.9,794.7 335.5,712.7 	"/>
	<polygon opacity="0.2" fill="#FFFFFF" points="261.4,832 325.5,808 335.5,712.7 	"/>
	<polygon opacity="0.2" fill="#FFFFFF" points="486.4,464.7 542.5,446.7 525.8,396 	"/>
	<polygon opacity="0.3" fill="#FFFFFF" points="531.8,490.7 542.5,446.7 486.4,464.7 	"/>
	<polygon opacity="0.1" fill="#FFFFFF" points="385.6,486 486.4,464.7 390.9,447.4 	"/>
	<polygon opacity="0.1" fill="#FFFFFF" points="486.4,464.7 525.8,396 378.2,386.7 	"/>
	<polygon opacity="0.2" fill="#FFFFFF" points="390.9,447.4 486.4,464.7 378.2,386.7 	"/>
	<polygon opacity="0.4" fill="#FFFFFF" points="583.2,545.4 595.3,511.4 595.3,494.3 531.8,490.7 	"/>
	<polygon opacity="0.3" fill="#FFFFFF" points="527.8,593.4 486.4,464.7 385.6,486 	"/>
	<polygon opacity="0.4" fill="#FFFFFF" points="527.8,593.4 531.8,490.7 486.4,464.7 	"/>
	<polygon opacity="0.4" fill="#FFFFFF" points="385.6,637.4 527.8,593.4 385.6,486 	"/>
	<polygon opacity="0.4" fill="#FFFFFF" points="583.2,545.4 531.8,490.7 527.8,593.4 	"/>
	<polygon opacity="0.4" fill="#FFFFFF" points="551.2,604 583.2,545.4 527.8,593.4 	"/>
	<polygon opacity="0.5" fill="#FFFFFF" points="581.9,666.7 551.2,604 527.8,593.4 	"/>
	<polygon opacity="0.5" fill="#FFFFFF" points="385.6,637.4 471.7,788 527.8,593.4 	"/>
	<polygon opacity="0.6" fill="#FFFFFF" points="471.7,788 581.9,666.7 527.8,593.4 	"/>
	<polygon opacity="0.5" fill="#FFFFFF" points="595.3,558.7 595.3,511.4 583.2,545.4 	"/>
	<polygon opacity="0.5" fill="#FFFFFF" points="551.2,604 595.3,579.7 595.3,558.7 583.2,545.4 	"/>
	<polygon opacity="0.5" fill="#FFFFFF" points="595.3,619.7 595.3,579.7 551.2,604 	"/>
	<polygon opacity="0.2" fill="#FFFFFF" points="385.6,486 390.9,447.4 293.5,464 	"/>
	<polygon opacity="0.3" fill="#FFFFFF" points="293.5,464 385.6,637.4 385.6,486 	"/>
	<polygon opacity="0.2" fill="#FFFFFF" points="294.1,618 293.5,464 266.8,602.7 	"/>
	<polygon opacity="0.1" fill="#FFFFFF" points="294.1,618 385.6,637.4 293.5,464 	"/>
	<g>
		<polygon opacity="0.8" fill="#FFFFFF" points="53.9,718.5 0,775.5 0,809.9 69.9,784.5 		"/>
		<polygon opacity="0.7" fill="#FFFFFF" points="0,720.9 0,775.5 53.9,718.5 		"/>
		<polygon opacity="0.7" fill="#FFFFFF" points="69.9,784.5 175.4,828.5 53.9,718.5 		"/>
		<polygon opacity="0.8" fill="#FFFFFF" points="69.9,784.5 67,841.9 150.7,841.9 175.4,828.5 		"/>
		<polygon opacity="0.9" fill="#FFFFFF" points="0,809.9 0,841.9 67,841.9 69.9,784.5 		"/>
		<polygon opacity="0.1" fill="#FFFFFF" points="239.5,513.8 168.1,501.1 224.2,541.2 		"/>
		<polygon opacity="0.6" fill="#FFFFFF" points="175.4,828.5 182,841.9 222.5,841.9 238.2,797.8 		"/>
		<polygon opacity="0.7" fill="#FFFFFF" points="150.7,841.9 182,841.9 175.4,828.5 		"/>
		<polygon opacity="0.5" fill="#FFFFFF" points="47.2,639.8 53.9,718.5 204.8,632.5 		"/>
		<polygon opacity="0.6" fill="#FFFFFF" points="47.2,639.8 0,663.5 0,720.9 53.9,718.5 		"/>
		<polygon opacity="0.1" fill="#FFFFFF" points="9.9,508.5 0,509.6 0,560.7 33.9,572.5 		"/>
		<polygon opacity="0.4" fill="#FFFFFF" points="33.9,572.5 0,584.5 0,638.7 47.2,639.8 		"/>
		<polygon opacity="0.5" fill="#FFFFFF" points="0,638.7 0,663.5 47.2,639.8 		"/>
		<polygon opacity="0.3" fill="#FFFFFF" points="0,560.7 0,584.5 33.9,572.5 		"/>
		<polygon opacity="0.3" fill="#FFFFFF" points="129.4,582.5 204.8,632.5 224.2,541.2 		"/>
		<polygon opacity="0.2" fill="#FFFFFF" points="168.1,501.1 129.4,582.5 224.2,541.2 		"/>
		<polygon opacity="0.4" fill="#FFFFFF" points="129.4,582.5 47.2,639.8 204.8,632.5 		"/>
		<polygon opacity="0.1" fill="#FFFFFF" points="168.1,501.1 9.9,508.5 129.4,582.5 		"/>
		<polygon opacity="0.3" fill="#FFFFFF" points="33.9,572.5 47.2,639.8 129.4,582.5 		"/>
		<polygon opacity="0.2" fill="#FFFFFF" points="9.9,508.5 33.9,572.5 129.4,582.5 		"/>
		<polygon opacity="0.5" fill="#FFFFFF" points="175.4,828.5 238.2,797.8 248.9,774.5 		"/>
		<polygon opacity="0.5" fill="#FFFFFF" points="204.8,632.5 53.9,718.5 248.9,774.5 		"/>
		<polygon opacity="0.6" fill="#FFFFFF" points="53.9,718.5 175.4,828.5 248.9,774.5 		"/>
		<polygon opacity="0.5" fill="#FFFFFF" points="222.5,841.9 262.6,841.9 238.2,797.8 		"/>
		<polygon opacity="0.5" fill="#FFFFFF" points="204.8,632.5 254.1,675.9 225.3,698.5 		"/>
		<polygon opacity="0.3" fill="#FFFFFF" points="254.1,675.9 248.9,774.5 225.3,698.5 		"/>
		<polygon opacity="0.2" fill="#FFFFFF" points="248.9,774.5 259.3,787.8 254.1,675.9 		"/>
		<polygon opacity="0.3" fill="#FFFFFF" points="259.3,787.8 238.2,797.8 248.9,774.5 		"/>
		<polygon opacity="0.4" fill="#FFFFFF" points="259.3,787.8 262.6,841.9 238.2,797.8 		"/>
	</g>
	<polygon opacity="0.1" fill="#FFFFFF" points="52.8,397.2 35.4,461.9 69.5,447.9 	"/>
	<polygon opacity="0.2" fill="#FFFFFF" points="52.8,397.2 0,410 0,449.8 35.4,461.9 	"/>
	<polygon opacity="0.8" fill="#FFFFFF" points="123.6,55.8 66.5,2 32.1,2 57.5,71.8 	"/>
	<polygon opacity="0.7" fill="#FFFFFF" points="121.2,2 66.5,2 123.6,55.8 	"/>
	<polygon opacity="0.7" fill="#FFFFFF" points="57.5,71.8 13.4,177.2 123.6,55.8 	"/>
	<polygon opacity="0.2" fill="#FFFFFF" points="0,354.1 0,410 52.8,397.2 	"/>
	<polygon opacity="0.8" fill="#FFFFFF" points="57.5,71.8 0,68.9 0,152.5 13.4,177.2 	"/>
	<polygon opacity="0.9" fill="#FFFFFF" points="32.1,2 0,2 0,68.9 57.5,71.8 	"/>
	<polygon opacity="0.1" fill="#FFFFFF" points="328.5,241.2 341.2,169.8 301.1,225.8 	"/>
	<polygon opacity="0.6" fill="#FFFFFF" points="13.4,177.2 0,183.7 0,224.2 44.1,239.9 	"/>
	<polygon opacity="0.7" fill="#FFFFFF" points="0,152.5 0,183.7 13.4,177.2 	"/>
	<polygon opacity="0.3" fill="#FFFFFF" points="63.5,353.2 0,349.5 0,354.1 52.8,397.2 	"/>
	<polygon opacity="0.5" fill="#FFFFFF" points="202.3,49.2 123.6,55.8 209.7,206.5 	"/>
	<polygon opacity="0.6" fill="#FFFFFF" points="202.3,49.2 178.6,2 121.2,2 123.6,55.8 	"/>
	<polygon opacity="0.3" fill="#FFFFFF" points="259.8,131.2 209.7,206.5 301.1,225.8 	"/>
	<polygon opacity="0.2" fill="#FFFFFF" points="341.2,169.8 259.8,131.2 301.1,225.8 	"/>
	<polygon opacity="0.4" fill="#FFFFFF" points="259.8,131.2 202.3,49.2 209.7,206.5 	"/>
	<polygon opacity="0.1" fill="#FFFFFF" points="336,56.1 332.7,2 259.8,131.2 	"/>
	<polygon opacity="0.3" fill="#FFFFFF" points="269.8,35.8 202.3,49.2 259.8,131.2 	"/>
	<polygon opacity="0.2" fill="#FFFFFF" points="332.7,2 273.5,0 259.8,131.2 	"/>
	<polygon opacity="0.2" fill="#FFFFFF" points="108.9,379.2 52.8,397.2 69.5,447.9 	"/>
	<polygon opacity="0.3" fill="#FFFFFF" points="63.5,353.2 52.8,397.2 108.9,379.2 	"/>
	<polygon opacity="0.1" fill="#FFFFFF" points="209.7,357.9 108.9,379.2 247.8,396.5 	"/>
	<polygon opacity="0.1" fill="#FFFFFF" points="108.9,379.2 69.5,447.9 166.6,501.1 	"/>
	<polygon opacity="0.2" fill="#FFFFFF" points="247.8,396.5 108.9,379.2 166.6,501.1 	"/>
	<polygon opacity="0.4" fill="#FFFFFF" points="12.1,298.5 0,332.5 0,349.5 63.5,353.2 	"/>
	<polygon opacity="0.3" fill="#FFFFFF" points="67.5,250.5 108.9,379.2 209.7,357.9 	"/>
	<polygon opacity="0.4" fill="#FFFFFF" points="67.5,250.5 63.5,353.2 108.9,379.2 	"/>
	<polygon opacity="0.4" fill="#FFFFFF" points="209.7,206.5 67.5,250.5 209.7,357.9 	"/>
	<polygon opacity="0.4" fill="#FFFFFF" points="12.1,298.5 63.5,353.2 67.5,250.5 	"/>
	<polygon opacity="0.4" fill="#FFFFFF" points="44.1,239.9 12.1,298.5 67.5,250.5 	"/>
	<polygon opacity="0.5" fill="#FFFFFF" points="13.4,177.2 44.1,239.9 67.5,250.5 	"/>
	<polygon opacity="0.5" fill="#FFFFFF" points="209.7,206.5 123.6,55.8 67.5,250.5 	"/>
	<polygon opacity="0.6" fill="#FFFFFF" points="123.6,55.8 13.4,177.2 67.5,250.5 	"/>
	<polygon opacity="0.5" fill="#FFFFFF" points="0,285.2 0,332.5 12.1,298.5 	"/>
	<polygon opacity="0.5" fill="#FFFFFF" points="44.1,239.9 0,264.2 0,285.2 12.1,298.5 	"/>
	<polygon opacity="0.5" fill="#FFFFFF" points="0,224.2 0,264.2 44.1,239.9 	"/>
	<polygon opacity="0.2" fill="#FFFFFF" points="209.7,357.9 247.8,396.5 258.4,336.5 	"/>
	<polygon opacity="0.3" fill="#FFFFFF" points="258.4,336.5 209.7,206.5 209.7,357.9 	"/>
	<polygon opacity="0.2" fill="#FFFFFF" points="301.1,225.8 258.4,336.5 328.5,241.2 	"/>
	<polygon opacity="0.1" fill="#FFFFFF" points="301.1,225.8 209.7,206.5 258.4,336.5 	"/>
	<g>
		<polygon opacity="0.8" fill="#FFFFFF" points="541.4,125.4 595.3,68.4 595.3,34 525.3,59.4 		"/>
		<polygon opacity="0.7" fill="#FFFFFF" points="595.3,123 595.3,68.4 541.4,125.4 		"/>
		<polygon opacity="0.7" fill="#FFFFFF" points="525.3,59.4 419.8,15.4 541.4,125.4 		"/>
		<polygon opacity="0.8" fill="#FFFFFF" points="525.3,59.4 528.3,2 444.6,2 419.8,15.4 		"/>
		<polygon opacity="0.9" fill="#FFFFFF" points="595.3,34 595.3,2 528.3,2 525.3,59.4 		"/>
		<polygon opacity="0.6" fill="#FFFFFF" points="419.8,15.4 413.3,2 372.8,2 357.1,46.1 		"/>
		<polygon opacity="0.7" fill="#FFFFFF" points="444.6,2 413.3,2 419.8,15.4 		"/>
		<polygon opacity="0.5" fill="#FFFFFF" points="548,204.1 541.4,125.4 390.5,211.4 		"/>
		<polygon opacity="0.6" fill="#FFFFFF" points="548,204.1 595.3,180.4 595.3,123 541.4,125.4 		"/>
		<polygon opacity="0.1" fill="#FFFFFF" points="585.4,335.4 595.3,394.1 595.3,283.1 561.4,271.4 		"/>
		<polygon opacity="0.4" fill="#FFFFFF" points="561.4,271.4 595.3,259.4 595.3,205.2 548,204.1 		"/>
		<polygon opacity="0.5" fill="#FFFFFF" points="595.3,205.2 595.3,180.4 548,204.1 		"/>
		<polygon opacity="0.3" fill="#FFFFFF" points="595.3,283.1 595.3,259.4 561.4,271.4 		"/>
		<polygon opacity="0.3" fill="#FFFFFF" points="465.9,261.4 390.5,211.4 327.7,302.7 		"/>
		<polygon opacity="0.2" fill="#FFFFFF" points="427.2,342.7 465.9,261.4 327.7,302.7 		"/>
		<polygon opacity="0.4" fill="#FFFFFF" points="465.9,261.4 548,204.1 390.5,211.4 		"/>
		<polygon opacity="0.1" fill="#FFFFFF" points="427.2,342.7 585.4,335.4 465.9,261.4 		"/>
		<polygon opacity="0.3" fill="#FFFFFF" points="561.4,271.4 548,204.1 465.9,261.4 		"/>
		<polygon opacity="0.2" fill="#FFFFFF" points="585.4,335.4 561.4,271.4 465.9,261.4 		"/>
		<polygon opacity="0.5" fill="#FFFFFF" points="419.8,15.4 357.1,46.1 346.4,69.4 		"/>
		<polygon opacity="0.5" fill="#FFFFFF" points="390.5,211.4 541.4,125.4 346.4,69.4 		"/>
		<polygon opacity="0.6" fill="#FFFFFF" points="541.4,125.4 419.8,15.4 346.4,69.4 		"/>
		<polygon opacity="0.5" fill="#FFFFFF" points="372.8,2 332.7,2 357.1,46.1 		"/>
		<polygon opacity="0.5" fill="#FFFFFF" points="390.5,211.4 341.2,168 370,145.4 		"/>
		<polygon opacity="0.3" fill="#FFFFFF" points="341.2,168 346.4,69.4 370,145.4 		"/>
		<polygon opacity="0.3" fill="#FFFFFF" points="336,56.1 357.1,46.1 346.4,69.4 		"/>
		<polygon opacity="0.4" fill="#FFFFFF" points="336,56.1 332.7,2 357.1,46.1 		"/>
	</g>
	<polygon opacity="0.1" fill="#FFFFFF" points="346.4,69.4 259.8,131.2 341.2,169.8 	"/>
	<polygon opacity="0.4" fill="#FFFFFF" points="336,56.1 346.4,69.4 259.8,131.2 	"/>
	<path opacity="0.1" fill="#FFFFFF" d="M273.5,0l-94.9,2l23.7,47.2C207.5,45.8,273.5,0,273.5,0z"/>
	<polygon opacity="0.4" fill="#FFFFFF" points="269.8,35.8 202.3,49.2 273.5,0 	"/>
	<polygon opacity="0.1" fill="#FFFFFF" points="293.5,464 238.2,579.9 266.8,602.7 	"/>
	<polygon opacity="0.2" fill="#FFFFFF" points="293.5,464 224.2,541.2 238.2,579.9 	"/>
	<polygon opacity="0.1" fill="#FFFFFF" points="239.5,513.8 293.5,464 224.2,541.2 	"/>
</g>
</svg>
